<svg xmlns="http://www.w3.org/2000/svg" fill="none" viewBox="0 0 714 710"><path fill="#93CD63" d="M702.815 370.853 452.853 620.815c-5.858 5.858-15.355 5.858-21.213 0l-55.154-55.154c-5.858-5.858-5.858-15.355 0-21.213l175.716-175.716c5.858-5.858 5.858-15.356 0-21.213L371.536 166.853c-5.858-5.858-5.858-15.356 0-21.213l53.033-53.0334c5.858-5.8579 15.355-5.8579 21.213 0L702.815 349.64c5.858 5.858 5.858 15.355 0 21.213Z"/><path fill="#6FA3DB" d="M10.6066 338.569 260.569 88.6066c5.858-5.8579 15.355-5.8579 21.213 0l55.154 55.1544c5.858 5.858 5.858 15.355 0 21.213L161.22 340.69c-5.858 5.858-5.858 15.356 0 21.213l180.666 180.666c5.858 5.858 5.858 15.356 0 21.213l-53.033 53.033c-5.858 5.858-15.355 5.858-21.213 0L10.6066 359.782c-5.85785-5.858-5.85786-15.355 0-21.213Z"/><path fill="#EA8452" d="M243.754 341.67 349.62 237.461c5.88-5.787 15.329-5.741 21.151.105L474.56 341.774c5.789 5.812 5.835 15.197.104 21.066L370.873 469.119c-5.844 5.985-15.455 6.033-21.358.106L243.649 362.946c-5.871-5.894-5.824-15.44.105-21.276Z"/><path fill="#D9D9D9" d="m467.817 57.7154 48.26-47.3168c5.875-5.75944 15.292-5.71281 21.109.1045l47.312 47.3158c5.817 5.8171 5.863 15.2336.104 21.1076l-47.314 48.2565c-5.84 5.957-15.418 6.004-21.317.106l-48.259-48.2559c-5.899-5.8987-5.852-15.4773.105-21.3177Zm-167 571.9996 48.26-47.316c5.875-5.76 15.292-5.713 21.109.104l47.312 47.316c5.817 5.817 5.863 15.234.104 21.108l-47.314 48.256c-5.84 5.957-15.418 6.004-21.317.106l-48.259-48.256c-5.899-5.899-5.852-15.477.105-21.318Z"/></svg>